<?xml version="1.0" encoding="UTF-8"?>
<svg width="21px" height="22px" viewBox="0 0 21 22" version="1.1" xmlns="http://www.w3.org/2000/svg" xmlns:xlink="http://www.w3.org/1999/xlink">
    <!-- Generator: Sketch 57.1 (83088) - https://sketch.com -->
    <title>ic_calendar</title>
    <desc>Created with Sketch.</desc>
    <g id="Collective-People" stroke="none" stroke-width="1" fill="none" fill-rule="evenodd">
        <g id="Collective-People-Add-Note" transform="translate(-536.000000, -508.000000)" fill="#696969" fill-rule="nonzero">
            <g id="Popup" transform="translate(506.000000, 355.000000)">
                <g id="filed" transform="translate(20.000000, 140.000000)">
                    <path d="M14.515,13 C14.0211719,13 13.612,13.4131627 13.612,13.9118072 L13.612,14.8236145 L10.903,14.8236145 C10.6666686,14.8236145 10.4268093,14.9108776 10.2574968,15.0836227 C10.0864203,15.2545865 10,15.4967853 10,15.7354217 L10,33.9715663 C10,34.210204 10.0864203,34.4524028 10.2574968,34.6251465 C10.4268093,34.7961104 10.6666686,34.8833735 10.903,34.8833735 L29.866,34.8833735 C30.1023327,34.8833735 30.3421921,34.7961104 30.5132673,34.6251465 C30.6825798,34.4524014 30.769,34.2102027 30.769,33.9715663 L30.769,15.7354217 C30.769,15.4967853 30.6825798,15.2545865 30.5132673,15.0836227 C30.3421908,14.9108776 30.1023314,14.8236145 29.866,14.8236145 L27.157,14.8236145 L27.157,13.9118072 C27.157,13.4131627 26.7478281,13 26.254,13 L25.351,13 C24.8571719,13 24.448,13.4131627 24.448,13.9118072 L24.448,14.8236145 L16.321,14.8236145 L16.321,13.9118072 C16.321,13.4131627 15.9118281,13 15.418,13 L14.515,13 Z M14.515,13.9118072 L15.418,13.9118072 L15.418,16.6472289 L14.515,16.6472289 L14.515,13.9118072 Z M25.351,13.9118072 L26.254,13.9118072 L26.254,16.6472289 L25.351,16.6472289 L25.351,13.9118072 Z M10.903,15.7354217 L13.612,15.7354217 L13.612,16.6472289 C13.612,17.1458735 14.0211719,17.5590361 14.515,17.5590361 L15.418,17.5590361 C15.9118281,17.5590361 16.321,17.1458735 16.321,16.6472289 L16.321,15.7354217 L24.448,15.7354217 L24.448,16.6472289 C24.448,17.1458735 24.8571719,17.5590361 25.351,17.5590361 L26.254,17.5590361 C26.7478281,17.5590361 27.157,17.1458735 27.157,16.6472289 L27.157,15.7354217 L29.866,15.7354217 L29.866,18.926747 L10.903,18.926747 L10.903,15.7354217 Z M10.903,19.8385542 L29.866,19.8385542 L29.866,33.9715663 L10.903,33.9715663 L10.903,19.8385542 Z M13.612,21.6621687 L13.612,32.1479518 L27.157,32.1479518 L27.157,21.6621687 L13.612,21.6621687 Z M14.515,22.5739759 L16.7725,22.5739759 L16.7725,24.853494 L14.515,24.853494 L14.515,22.5739759 Z M17.6755,22.5739759 L19.933,22.5739759 L19.933,24.853494 L17.6755,24.853494 L17.6755,22.5739759 Z M20.836,22.5739759 L23.0935,22.5739759 L23.0935,24.853494 L20.836,24.853494 L20.836,22.5739759 Z M23.9965,22.5739759 L26.254,22.5739759 L26.254,24.853494 L23.9965,24.853494 L23.9965,22.5739759 Z M14.515,25.7653012 L16.7725,25.7653012 L16.7725,28.0448193 L14.515,28.0448193 L14.515,25.7653012 Z M17.6755,25.7653012 L19.933,25.7653012 L19.933,28.0448193 L17.6755,28.0448193 L17.6755,25.7653012 Z M20.836,25.7653012 L23.0935,25.7653012 L23.0935,28.0448193 L20.836,28.0448193 L20.836,25.7653012 Z M23.9965,25.7653012 L26.254,25.7653012 L26.254,28.0448193 L23.9965,28.0448193 L23.9965,25.7653012 Z M14.515,28.9566265 L16.7725,28.9566265 L16.7725,31.2361446 L14.515,31.2361446 L14.515,28.9566265 Z M17.6755,28.9566265 L19.933,28.9566265 L19.933,31.2361446 L17.6755,31.2361446 L17.6755,28.9566265 Z M20.836,28.9566265 L23.0935,28.9566265 L23.0935,31.2361446 L20.836,31.2361446 L20.836,28.9566265 Z M23.9965,28.9566265 L26.254,28.9566265 L26.254,31.2361446 L23.9965,31.2361446 L23.9965,28.9566265 Z" id="ic_calendar"></path>
                </g>
            </g>
        </g>
    </g>
</svg>