<?xml version="1.0" encoding="UTF-8"?>
<svg width="25px" height="21px" viewBox="0 0 25 21" version="1.1" xmlns="http://www.w3.org/2000/svg" xmlns:xlink="http://www.w3.org/1999/xlink">
    <!-- Generator: Sketch 57.1 (83088) - https://sketch.com -->
    <title>ic_email</title>
    <desc>Created with Sketch.</desc>
    <g id="Collective-People" stroke="none" stroke-width="1" fill="none" fill-rule="evenodd" stroke-linecap="round" stroke-linejoin="round">
        <g id="Collective-People-List-Add" transform="translate(-534.000000, -229.000000)" stroke="#696969">
            <g id="Popup" transform="translate(506.000000, 75.000000)">
                <g id="filed" transform="translate(20.000000, 140.000000)">
                    <g id="ic_email" transform="translate(9.000000, 15.000000)">
                        <path d="M0.00479608071,9.92773139 L11.1807961,11.4327314 C11.4587961,11.4397314 11.7427961,11.3717314 11.9977961,11.2157314 C12.2537961,11.0597314 12.4437961,10.8387314 12.5647961,10.5877314 L12.5667961,10.5867314 L16.3127961,0.0277313932" id="Stroke-144"></path>
                        <path d="M10.7659961,19.0000314 L22.2569961,12.3100314 C22.9669961,11.8960314 23.2109961,10.9800314 22.8009961,10.2630314 L17.3529961,0.750031393 C16.9429961,0.0330313932 16.0349961,-0.212968607 15.3239961,0.201031393 L0.742996081,8.69003139 C0.0329960807,9.10403139 -0.211003919,10.0200314 0.198996081,10.7370314 L4.92999608,19.0000314" id="Stroke-146"></path>
                        <path d="M1.99989608,19.0000314 L20.9998961,19.0000314" id="Stroke-148"></path>
                    </g>
                </g>
            </g>
        </g>
    </g>
</svg>