<?xml version="1.0" encoding="UTF-8"?>
<svg width="40px" height="40px" viewBox="0 0 40 40" version="1.1" xmlns="http://www.w3.org/2000/svg" xmlns:xlink="http://www.w3.org/1999/xlink">
    <!-- Generator: Sketch 57.1 (83088) - https://sketch.com -->
    <title>ic_twitter_inactive</title>
    <desc>Created with Sketch.</desc>
    <g id="Page-1" stroke="none" stroke-width="1" fill="none" fill-rule="evenodd">
        <g id="Desktop" transform="translate(-572.000000, -126.000000)">
            <g id="inactive" transform="translate(404.000000, 126.000000)">
                <g id="ic_twitter_inactive" transform="translate(168.000000, 0.000000)">
                    <rect id="Rectangle-6-Copy-8" stroke-opacity="0.5" stroke="#C3C3C3" x="0.5" y="0.5" width="39" height="39" rx="19.5"></rect>
                    <path d="M29.217,14.752 C28.546,15.049 27.826,15.25 27.07,15.341 C27.842,14.878 28.435,14.146 28.714,13.273 C27.991,13.702 27.192,14.012 26.34,14.18 C25.658,13.453 24.687,13 23.611,13 C21.547,13 19.874,14.673 19.874,16.737 C19.874,17.03 19.907,17.315 19.971,17.589 C16.865,17.433 14.11,15.945 12.267,13.684 C11.946,14.236 11.761,14.878 11.761,15.563 C11.761,16.86 12.421,18.003 13.424,18.674 C12.812,18.654 12.235,18.486 11.731,18.206 L11.731,18.253 C11.731,20.065 13.02,21.574 14.729,21.918 C14.416,22.004 14.085,22.049 13.745,22.049 C13.504,22.049 13.27,22.026 13.042,21.983 C13.518,23.467 14.898,24.548 16.534,24.579 C15.255,25.581 13.643,26.179 11.892,26.179 C11.59,26.179 11.293,26.161 11,26.126 C12.654,27.187 14.618,27.806 16.729,27.806 C23.604,27.806 27.363,22.111 27.363,17.171 C27.363,17.01 27.36,16.849 27.352,16.688 C28.083,16.16 28.716,15.502 29.217,14.752 L29.217,14.752 Z" id="Shape" fill-opacity="0.25" fill="#696969"></path>
                </g>
            </g>
        </g>
    </g>
</svg>