<?xml version="1.0" encoding="UTF-8"?>
<svg width="25px" height="25px" viewBox="0 0 25 25" version="1.1" xmlns="http://www.w3.org/2000/svg" xmlns:xlink="http://www.w3.org/1999/xlink">
    <!-- Generator: Sketch 57.1 (83088) - https://sketch.com -->
    <title>ic_web</title>
    <desc>Created with Sketch.</desc>
    <g id="Collective-People" stroke="none" stroke-width="1" fill="none" fill-rule="evenodd">
        <g id="Collective-People-Add-New-Organization-Popup" transform="translate(-534.000000, -418.000000)" stroke="#696969">
            <g id="Popup" transform="translate(506.000000, 75.000000)">
                <g id="filed" transform="translate(20.000000, 330.000000)">
                    <g id="ic_web" transform="translate(9.000000, 14.000000)">
                        <path d="M23,11.5 C23,17.851 17.851,23 11.5,23 C5.149,23 0,17.851 0,11.5 C0,5.149 5.149,0 11.5,0 C17.851,0 23,5.149 23,11.5 Z" id="Stroke-431" stroke-linecap="round" stroke-linejoin="round"></path>
                        <path d="M11.5,23 C8.462,23 6,17.851 6,11.5 C6,5.149 8.462,0 11.5,0" id="Stroke-439" stroke-linecap="round" stroke-linejoin="round"></path>
                        <path d="M17.5,23 C14.462,23 12,17.851 12,11.5 C12,5.149 14.462,0 17.5,0" id="Stroke-439" stroke-linecap="round" stroke-linejoin="round" transform="translate(14.750000, 11.500000) scale(-1, 1) translate(-14.750000, -11.500000) "></path>
                        <path d="M11.5,0.5 L11.5,22.5" id="Line-4" stroke-linecap="square"></path>
                        <path d="M11.5,0.5 L11.5,22.5" id="Line-4" stroke-linecap="square" transform="translate(11.500000, 11.500000) rotate(-90.000000) translate(-11.500000, -11.500000) "></path>
                    </g>
                </g>
            </g>
        </g>
    </g>
</svg>