<?xml version="1.0" encoding="UTF-8"?>
<svg width="12px" height="12px" viewBox="0 0 12 12" version="1.1" xmlns="http://www.w3.org/2000/svg" xmlns:xlink="http://www.w3.org/1999/xlink">
    <!-- Generator: Sketch 57.1 (83088) - https://sketch.com -->
    <title>Error Icon</title>
    <desc>Created with Sketch.</desc>
    <g id="Collective-People" stroke="none" stroke-width="1" fill="none" fill-rule="evenodd">
        <g transform="translate(-590.000000, -798.000000)" fill="#4A90E2" id="2">
            <g transform="translate(271.000000, 0.000000)">
                <g id="info" transform="translate(17.000000, 145.000000)">
                    <g id="Group-5" transform="translate(6.000000, 557.000000)">
                        <g id="Group-6" transform="translate(157.000000, 87.000000)">
                            <path d="M147.307904,18.7054786 L145.002497,16.401223 L142.692096,18.7094721 C142.305531,19.0968426 141.677238,19.0968426 141.290673,18.7094721 C140.903109,18.3231 140.903109,17.6961188 141.290673,17.3087483 L143.600075,14.9995008 L141.290673,12.6912517 C140.903109,12.3038812 140.903109,11.6769 141.290673,11.2905279 C141.677238,10.9031574 142.305531,10.9031574 142.692096,11.2905279 L145.002497,13.598777 L147.307904,11.2945214 C147.694469,10.9071509 148.321763,10.9071509 148.709327,11.2945214 C149.095892,11.6818919 149.095892,12.3088731 148.709327,12.6952452 L146.403921,15.0004992 L148.709327,17.3047548 C149.096891,17.6911269 149.096891,18.3191065 148.709327,18.7054786 C148.322762,19.0918507 147.694469,19.0918507 147.307904,18.7054786 Z" id="Error-Icon" transform="translate(145.000000, 15.000000) rotate(45.000000) translate(-145.000000, -15.000000) "></path>
                        </g>
                    </g>
                </g>
            </g>
        </g>
    </g>
</svg>