<?xml version="1.0" encoding="UTF-8"?>
<svg width="25px" height="21px" viewBox="0 0 25 21" version="1.1" xmlns="http://www.w3.org/2000/svg" xmlns:xlink="http://www.w3.org/1999/xlink">
    <!-- Generator: Sketch 57.1 (83088) - https://sketch.com -->
    <title>ic_company</title>
    <desc>Created with Sketch.</desc>
    <g id="Collective-People" stroke="none" stroke-width="1" fill="none" fill-rule="evenodd" stroke-linecap="round" stroke-linejoin="round">
        <g id="Collective-People-Add-New-Organization-Popup" transform="translate(-534.000000, -168.000000)" stroke="#696969">
            <g id="Popup" transform="translate(506.000000, 75.000000)">
                <g id="filed" transform="translate(20.000000, 80.000000)">
                    <g id="ic_company" transform="translate(9.000000, 14.000000)">
                        <path d="M21.5,19 L1.5,19 C0.671,19 0,18.329 0,17.5 L0,4.5 C0,3.671 0.671,3 1.5,3 L21.5,3 C22.329,3 23,3.671 23,4.5 L23,17.5 C23,18.329 22.329,19 21.5,19 Z" id="Stroke-47"></path>
                        <path d="M16,3 L7,3 L7,1.5 C7,0.671 7.671,0 8.5,0 L14.5,0 C15.329,0 16,0.671 16,1.5 L16,3 Z" id="Stroke-49"></path>
                        <path d="M0,5.9395 L10.688,12.8125 C10.922,12.9295 11.199,13.0005 11.499,13.0005 C11.798,13.0005 12.075,12.9295 12.309,12.8125 L12.312,12.8125 L23,5.9395" id="Stroke-51"></path>
                        <path d="M12,9.499 C12,9.775 11.776,9.999 11.5,9.999 C11.224,9.999 11,9.775 11,9.499 C11,9.223 11.224,8.999 11.5,8.999 C11.776,8.999 12,9.223 12,9.499 Z" id="Stroke-53"></path>
                    </g>
                </g>
            </g>
        </g>
    </g>
</svg>