<?xml version="1.0" encoding="UTF-8"?>
<svg width="40px" height="40px" viewBox="0 0 40 40" version="1.1" xmlns="http://www.w3.org/2000/svg" xmlns:xlink="http://www.w3.org/1999/xlink">
    <!-- Generator: Sketch 57.1 (83088) - https://sketch.com -->
    <title>ic_instagram_active</title>
    <desc>Created with Sketch.</desc>
    <g id="Page-1" stroke="none" stroke-width="1" fill="none" fill-rule="evenodd">
        <g id="Desktop" transform="translate(-516.000000, -246.000000)">
            <g id="active" transform="translate(404.000000, 246.000000)">
                <g id="ic_instagram_active" transform="translate(112.000000, 0.000000)">
                    <rect id="Rectangle-6-Copy-7" stroke-opacity="0.5" stroke="#C3C3C3" fill="#FFFFFF" x="0.5" y="0.5" width="39" height="39" rx="19.5"></rect>
                    <path d="M24.664,19.515 C24.664,22.359 22.358,24.663 19.516,24.663 C16.672,24.663 14.368,22.358 14.368,19.515 C14.368,19.176 14.401,18.845 14.464,18.525 L11.002,18.525 L11.002,25.369 C11.002,26.839 12.192,28.03 13.663,28.03 L25.371,28.03 C26.84,28.03 28.032,26.839 28.032,25.369 L28.032,18.525 L24.569,18.525 C24.63,18.845 24.664,19.176 24.664,19.515 L24.664,19.515 Z M25.369,11 L13.661,11 C12.19,11 11,12.191 11,13.66 L11,16.544 L15.311,16.544 C16.243,15.227 17.778,14.366 19.516,14.366 C21.252,14.366 22.787,15.226 23.72,16.544 L28.031,16.544 L28.031,13.66 C28.03,12.192 26.838,11 25.369,11 L25.369,11 Z M26.67,14.287 C26.67,14.549 26.457,14.762 26.195,14.762 L24.769,14.762 C24.508,14.762 24.294,14.549 24.294,14.287 L24.294,12.861 C24.294,12.599 24.508,12.385 24.769,12.385 L26.195,12.385 C26.456,12.385 26.67,12.599 26.67,12.861 L26.67,14.287 L26.67,14.287 Z M22.683,19.515 C22.683,17.765 21.265,16.346 19.515,16.346 C17.765,16.346 16.347,17.765 16.347,19.515 C16.347,21.265 17.765,22.683 19.515,22.683 C21.265,22.683 22.683,21.265 22.683,19.515 L22.683,19.515 Z" id="Shape" fill="#E1306C"></path>
                </g>
            </g>
        </g>
    </g>
</svg>