<?xml version="1.0" encoding="UTF-8"?>
<svg width="18px" height="18px" viewBox="0 0 18 18" version="1.1" xmlns="http://www.w3.org/2000/svg" xmlns:xlink="http://www.w3.org/1999/xlink">
    <!-- Generator: Sketch 57.1 (83088) - https://sketch.com -->
    <title>ic_loading_white</title>
    <desc>Created with Sketch.</desc>
    <g id="Collective-People" stroke="none" stroke-width="1" fill="none" fill-rule="evenodd">
        <g transform="translate(-1267.000000, -1172.000000)" fill="#E1EBFF" id="4">
            <g transform="translate(1111.000000, 0.000000)">
                <g id="ic_loading_white" transform="translate(156.000000, 1172.000000)">
                    <g id="Group-26">
                        <path d="M8.75,4.5 L8.75,4.5 C8.3375,4.5 8,4.1625 8,3.75 L8,0.75 C8,0.3375 8.3375,0 8.75,0 L8.75,0 C9.1625,0 9.5,0.3375 9.5,0.75 L9.5,3.75 C9.5,4.1625 9.1625,4.5 8.75,4.5" id="Fill-2" opacity="0.65"></path>
                        <path d="M10.875,5.0694 L10.875,5.0694 C10.51775,4.86315 10.39425,4.40215 10.6005,4.0449 L12.1005,1.4469 C12.30675,1.08965 12.76775,0.96615 13.125,1.1724 L13.125,1.1724 C13.48225,1.37865 13.60575,1.83965 13.3995,2.1969 L11.8995,4.7949 C11.69325,5.15215 11.23225,5.27565 10.875,5.0694" id="Fill-4" opacity="0.75"></path>
                        <path d="M12.4306,6.625 L12.4306,6.625 C12.22435,6.26775 12.34785,5.80675 12.7051,5.6005 L15.3031,4.1005 C15.66035,3.89425 16.12135,4.01775 16.3276,4.375 L16.3276,4.375 C16.53385,4.73225 16.41035,5.19325 16.0531,5.3995 L13.4551,6.8995 C13.09785,7.10575 12.63685,6.98225 12.4306,6.625" id="Fill-6" opacity="0.85"></path>
                        <path d="M13,8.75 L13,8.75 C13,8.3375 13.3375,8 13.75,8 L16.75,8 C17.1625,8 17.5,8.3375 17.5,8.75 L17.5,8.75 C17.5,9.1625 17.1625,9.5 16.75,9.5 L13.75,9.5 C13.3375,9.5 13,9.1625 13,8.75" id="Fill-8" opacity="0.9"></path>
                        <path d="M12.4306,10.875 L12.4306,10.875 C12.63685,10.51775 13.09785,10.39425 13.4551,10.6005 L16.0531,12.1005 C16.41035,12.30675 16.53385,12.76775 16.3276,13.125 L16.3276,13.125 C16.12135,13.48225 15.66035,13.60575 15.3031,13.3995 L12.7051,11.8995 C12.34785,11.69325 12.22435,11.23225 12.4306,10.875" id="Fill-10" opacity="0.2"></path>
                        <path d="M10.875,12.4306 L10.875,12.4306 C11.23225,12.22435 11.69325,12.34785 11.8995,12.7051 L13.3995,15.3031 C13.60575,15.66035 13.48225,16.12135 13.125,16.3276 L13.125,16.3276 C12.76775,16.53385 12.30675,16.41035 12.1005,16.0531 L10.6005,13.4551 C10.39425,13.09785 10.51775,12.63685 10.875,12.4306" id="Fill-12" opacity="0.25"></path>
                        <path d="M8.75,13 L8.75,13 C9.1625,13 9.5,13.3375 9.5,13.75 L9.5,16.75 C9.5,17.1625 9.1625,17.5 8.75,17.5 L8.75,17.5 C8.3375,17.5 8,17.1625 8,16.75 L8,13.75 C8,13.3375 8.3375,13 8.75,13" id="Fill-14" opacity="0.3"></path>
                        <path d="M6.625,12.4306 L6.625,12.4306 C6.98225,12.63685 7.10575,13.09785 6.8995,13.4551 L5.3995,16.0531 C5.19325,16.41035 4.73225,16.53385 4.375,16.3276 L4.375,16.3276 C4.01775,16.12135 3.89425,15.66035 4.1005,15.3031 L5.6005,12.7051 C5.80675,12.34785 6.26775,12.22435 6.625,12.4306" id="Fill-16" opacity="0.35"></path>
                        <path d="M5.0694,10.875 L5.0694,10.875 C5.27565,11.23225 5.15215,11.69325 4.7949,11.8995 L2.1969,13.3995 C1.83965,13.60575 1.37865,13.48225 1.1724,13.125 L1.1724,13.125 C0.96615,12.76775 1.08965,12.30675 1.4469,12.1005 L4.0449,10.6005 C4.40215,10.39425 4.86315,10.51775 5.0694,10.875" id="Fill-18" opacity="0.4"></path>
                        <path d="M4.5,8.75 L4.5,8.75 C4.5,9.1625 4.1625,9.5 3.75,9.5 L0.75,9.5 C0.3375,9.5 0,9.1625 0,8.75 L0,8.75 C0,8.3375 0.3375,8 0.75,8 L3.75,8 C4.1625,8 4.5,8.3375 4.5,8.75" id="Fill-20" opacity="0.45"></path>
                        <path d="M5.0694,6.625 L5.0694,6.625 C4.86315,6.98225 4.40215,7.10575 4.0449,6.8995 L1.4469,5.3995 C1.08965,5.19325 0.96615,4.73225 1.1724,4.375 L1.1724,4.375 C1.37865,4.01775 1.83965,3.89425 2.1969,4.1005 L4.7949,5.6005 C5.15215,5.80675 5.27565,6.26775 5.0694,6.625" id="Fill-22" opacity="0.5"></path>
                        <path d="M6.625,5.0694 L6.625,5.0694 C6.26775,5.27565 5.80675,5.15215 5.6005,4.7949 L4.1005,2.1969 C3.89425,1.83965 4.01775,1.37865 4.375,1.1724 L4.375,1.1724 C4.73225,0.96615 5.19325,1.08965 5.3995,1.4469 L6.8995,4.0449 C7.10575,4.40215 6.98225,4.86315 6.625,5.0694" id="Fill-24" opacity="0.55"></path>
                    </g>
                </g>
            </g>
        </g>
    </g>
</svg>