<?xml version="1.0" encoding="UTF-8"?>
<svg width="25px" height="25px" viewBox="0 0 25 25" version="1.1" xmlns="http://www.w3.org/2000/svg" xmlns:xlink="http://www.w3.org/1999/xlink">
    <!-- Generator: Sketch 57.1 (83088) - https://sketch.com -->
    <title>ic_name</title>
    <desc>Created with Sketch.</desc>
    <g id="Collective-People" stroke="none" stroke-width="1" fill="none" fill-rule="evenodd" stroke-linecap="round" stroke-linejoin="round">
        <g id="Collective-People-List-Add" transform="translate(-534.000000, -168.000000)" stroke="#696969">
            <g id="Popup" transform="translate(506.000000, 75.000000)">
                <g id="filed" transform="translate(20.000000, 80.000000)">
                    <g id="ic_name" transform="translate(9.000000, 14.000000)">
                        <path d="M14.5,8 C14.5,9.657 13.157,11 11.5,11 C9.843,11 8.5,9.657 8.5,8 C8.5,6.343 9.843,5 11.5,5 C13.157,5 14.5,6.343 14.5,8 Z" id="Stroke-285"></path>
                        <path d="M11.5,13 C9.435,13 7.556,13.752 6.355,14.375 C5.525,14.806 5,15.663 5,16.605 L5,17.062 C5,17.58 5.416,18 5.929,18 L17.071,18 C17.584,18 18,17.58 18,17.062 L18,16.605 C18,15.663 17.475,14.806 16.645,14.375 C15.444,13.752 13.565,13 11.5,13 Z" id="Stroke-287"></path>
                        <path d="M23,11.5 C23,17.851 17.851,23 11.5,23 C5.149,23 0,17.851 0,11.5 C0,5.149 5.149,0 11.5,0 C17.851,0 23,5.149 23,11.5 Z" id="Stroke-289"></path>
                    </g>
                </g>
            </g>
        </g>
    </g>
</svg>