<?xml version="1.0" encoding="UTF-8"?>
<svg width="19px" height="19px" viewBox="0 0 19 19" version="1.1" xmlns="http://www.w3.org/2000/svg" xmlns:xlink="http://www.w3.org/1999/xlink">
    <!-- Generator: Sketch 57.1 (83088) - https://sketch.com -->
    <title>ic_phone</title>
    <desc>Created with Sketch.</desc>
    <g id="Collective-People" stroke="none" stroke-width="1" fill="none" fill-rule="evenodd" stroke-linecap="round" stroke-linejoin="round">
        <g id="Collective-People-List-Add" transform="translate(-537.000000, -291.000000)" stroke="#696969">
            <g id="Popup" transform="translate(506.000000, 75.000000)">
                <g id="filed" transform="translate(20.000000, 200.000000)">
                    <path d="M15.778,24.556 C17.138,27.229 18.772,28.853 21.445,30.223 L23.721,28.504 C23.976,28.249 24.354,28.163 24.684,28.277 C25.742,28.626 26.884,28.815 28.056,28.815 C28.575,28.815 29,29.241 29,29.76 L29,33.056 C29,33.576 28.575,34 28.056,34 C19.187,34 12,26.813 12,17.945 C12,17.425 12.425,17 12.945,17 L16.25,17 C16.77,17 17.195,17.425 17.195,17.945 C17.195,19.125 17.383,20.259 17.733,21.316 C17.837,21.647 17.761,22.015 17.497,22.28 L15.778,24.556 Z" id="ic_phone"></path>
                </g>
            </g>
        </g>
    </g>
</svg>