<?xml version="1.0" encoding="utf-8"?>
<!-- Generator: Adobe Illustrator 15.0.0, SVG Export Plug-In . SVG Version: 6.00 Build 0)  -->
<!DOCTYPE svg PUBLIC "-//W3C//DTD SVG 1.1//EN" "http://www.w3.org/Graphics/SVG/1.1/DTD/svg11.dtd">
<svg version="1.1" id="Layer_1" xmlns="http://www.w3.org/2000/svg" xmlns:xlink="http://www.w3.org/1999/xlink" x="0px" y="0px"
	 width="240px" height="240px" viewBox="0 0 240 240" enable-background="new 0 0 240 240" xml:space="preserve">
<rect fill="#E5F4F5" width="240" height="240"/>
<path fill="#FFFFFF" d="M170.601,166.709H69.398c-6.45,0-11.677-5.229-11.677-11.678V84.968c0-6.45,5.228-11.677,11.677-11.677
	h101.202c6.449,0,11.678,5.228,11.678,11.677v70.063C182.278,161.48,177.05,166.709,170.601,166.709z M84.968,86.915
	c-7.524,0-13.623,6.099-13.623,13.624s6.099,13.623,13.623,13.623s13.623-6.099,13.623-13.623S92.493,86.915,84.968,86.915z
	 M73.291,151.14h93.418v-27.248l-21.291-21.289c-1.139-1.141-2.988-1.141-4.129,0l-32.966,32.967l-13.505-13.506
	c-1.14-1.139-2.989-1.139-4.129,0l-17.397,17.398V151.14z"/>
</svg>
